<?xml version="1.0" standalone="no"?>
<!DOCTYPE svg PUBLIC "-//W3C//DTD SVG 20010904//EN"
 "http://www.w3.org/TR/2001/REC-SVG-20010904/DTD/svg10.dtd">
<svg version="1.0" xmlns="http://www.w3.org/2000/svg"
 width="300.000000pt" height="300.000000pt" viewBox="0 0 300.000000 300.000000"
 preserveAspectRatio="xMidYMid meet">
<metadata>
Created by potrace 1.10, written by Peter Selinger 2001-2011
</metadata>
<g transform="translate(0.000000,300.000000) scale(0.100000,-0.100000)"
fill="#000000" stroke="none">
<path d="M1250 2645 c-30 -9 -73 -27 -96 -40 -61 -36 -133 -120 -147 -172 -6
-25 -20 -49 -31 -55 -41 -22 -109 -95 -134 -143 -19 -38 -27 -70 -30 -131 -6
-108 16 -184 68 -236 61 -61 77 -56 195 65 109 111 162 144 246 154 84 10 125
-20 144 -105 10 -47 50 -90 91 -98 22 -4 67 2 125 16 102 25 155 19 184 -23
39 -56 7 -124 -95 -200 -97 -71 -180 -153 -180 -175 0 -11 -7 -33 -15 -48 -24
-47 -19 -92 14 -123 l29 -27 -24 -27 c-35 -41 -31 -82 16 -160 25 -41 40 -78
40 -98 0 -26 -3 -30 -12 -21 -15 15 -45 16 -53 1 -4 -5 0 -18 9 -28 14 -16 15
-19 3 -24 -22 -8 -67 -107 -67 -145 0 -31 -2 -34 -22 -27 -64 20 -82 17 -131
-20 -36 -27 -52 -34 -60 -26 -15 15 -37 14 -37 -3 0 -18 74 -29 115 -18 19 6
45 5 72 -3 35 -11 45 -10 62 2 12 8 21 23 21 33 0 14 10 21 35 26 28 5 43 1
81 -24 l46 -31 -39 -25 c-56 -37 -120 -57 -176 -54 -46 3 -52 0 -66 -24 -12
-21 -13 -31 -3 -53 12 -27 14 -27 80 -20 64 6 70 5 100 -20 36 -30 51 -83 33
-121 -28 -62 -155 -70 -265 -15 -33 16 -108 68 -166 114 -112 89 -164 153
-204 250 -12 31 -26 54 -29 51 -17 -18 74 -185 129 -236 69 -63 210 -168 260
-192 111 -54 225 -55 272 -1 47 55 23 148 -46 181 -26 12 -42 13 -80 5 -55
-11 -75 -1 -70 38 3 25 6 26 66 27 72 2 122 21 201 76 51 36 52 38 26 38 -15
0 -42 10 -59 23 -43 32 -60 37 -95 27 -30 -8 -31 -8 -31 26 0 51 22 94 74 144
42 40 47 49 43 81 -3 20 -21 61 -42 92 -45 68 -50 115 -16 151 l23 24 51 -24
c70 -32 165 -33 227 -1 25 12 47 30 48 40 6 29 -36 66 -92 82 -59 18 -99 18
-146 1 -34 -12 -54 -46 -28 -46 7 -1 -2 -7 -21 -16 -45 -19 -70 -10 -87 32
-12 30 -12 39 1 70 8 19 19 33 24 30 5 -4 49 5 96 19 99 28 172 31 230 9 61
-24 82 -27 90 -14 4 7 -4 24 -19 39 -71 74 -270 71 -373 -6 -18 -13 -33 -20
-33 -15 0 12 103 109 155 147 109 79 154 143 140 204 -16 72 -102 98 -221 67
-127 -33 -165 -17 -198 84 -27 83 -56 105 -135 104 -96 -1 -160 -38 -272 -156
-75 -79 -101 -100 -123 -100 -51 -1 -94 61 -116 166 -24 118 13 231 103 311
l51 47 11 -55 c30 -149 164 -222 256 -139 71 64 45 189 -48 228 -42 18 -115
18 -159 -1 -35 -14 -35 -14 -28 8 37 120 147 203 301 227 120 19 225 -12 321
-95 47 -41 51 -51 21 -60 -11 -4 -36 -20 -55 -37 -45 -40 -48 -95 -8 -127 78
-62 167 23 131 125 l-14 42 39 5 c158 21 318 -79 368 -228 l22 -65 -24 -20
c-22 -18 -22 -19 -5 -37 18 -17 19 -17 37 5 26 32 45 28 94 -21 57 -57 86
-135 93 -249 10 -150 -26 -267 -122 -397 -25 -33 -41 -61 -35 -61 16 0 77 89
120 175 71 141 76 317 13 457 -29 64 -89 126 -131 134 -23 5 -29 13 -39 55
-26 108 -89 186 -191 236 -50 24 -70 28 -154 30 l-98 1 -51 46 c-82 73 -146
100 -253 103 -59 2 -110 -3 -146 -12z m460 -191 c29 -74 -4 -137 -68 -132 -28
2 -40 10 -52 31 -13 24 -13 30 0 54 17 30 74 73 97 73 7 0 18 -12 23 -26z
m-499 -69 c83 -43 88 -169 9 -210 -91 -47 -198 30 -208 149 -5 58 -4 59 83 79
28 7 84 -2 116 -18z m703 -835 c41 -9 87 -38 94 -58 2 -8 -15 -5 -50 9 -70 27
-162 27 -251 -1 -78 -24 -105 -22 -63 5 72 48 182 66 270 45z m-37 -175 c39
-17 73 -43 73 -56 0 -5 -19 -19 -42 -31 -57 -30 -154 -30 -218 -1 l-45 21 40
17 c39 17 139 17 193 0 16 -5 22 -3 22 8 0 24 -59 42 -135 40 -45 -1 -63 2
-50 7 33 14 123 11 162 -5z m-345 -623 c4 -4 2 -17 -6 -27 -13 -17 -17 -18
-56 -5 -31 10 -51 11 -81 3 -21 -6 -39 -9 -39 -7 0 2 17 15 38 29 31 23 44 26
86 21 27 -3 53 -9 58 -14z"/>
</g>
</svg>
