<?xml version="1.0" standalone="no"?>
<!DOCTYPE svg PUBLIC "-//W3C//DTD SVG 20010904//EN"
 "http://www.w3.org/TR/2001/REC-SVG-20010904/DTD/svg10.dtd">
<svg version="1.0" xmlns="http://www.w3.org/2000/svg"
 width="300.000000pt" height="150.000000pt" viewBox="0 0 300.000000 150.000000"
 preserveAspectRatio="xMidYMid meet">
<metadata>
Created by potrace 1.10, written by Peter Selinger 2001-2011
</metadata>
<g transform="translate(0.000000,150.000000) scale(0.100000,-0.100000)"
fill="#000000" stroke="none">
<path d="M494 961 c-43 -20 -84 -63 -85 -90 0 -9 -8 4 -17 28 -9 24 -22 46
-28 48 -6 2 -25 -36 -43 -85 -32 -89 -55 -132 -71 -132 -12 0 -30 66 -30 108
0 43 -16 72 -40 72 -19 0 -84 -49 -76 -57 3 -3 19 7 37 21 17 15 37 25 43 23
6 -2 14 -26 17 -54 11 -85 28 -125 52 -121 25 4 49 43 80 132 13 36 26 69 30
72 3 3 11 -14 17 -37 19 -75 21 -77 36 -35 45 127 175 144 410 53 197 -76 361
-102 609 -94 175 5 290 21 430 60 l80 23 35 -20 c24 -14 54 -21 95 -22 46 0
100 -15 229 -60 104 -36 171 -65 173 -74 4 -13 3 -13 -6 0 -6 8 -11 10 -11 4
0 -12 -288 84 -313 104 -9 8 -29 16 -45 18 -24 4 -29 1 -28 -17 1 -29 -20 -36
-29 -10 -3 12 -11 21 -17 21 -6 0 -7 -7 -3 -17 4 -10 14 -35 22 -56 37 -103
54 -123 235 -271 92 -76 100 -86 184 -228 49 -81 93 -148 97 -148 10 0 -12 39
-112 201 -61 98 -76 115 -192 212 -141 118 -160 139 -185 202 -15 41 -15 45 0
60 9 9 16 24 16 33 0 9 35 -21 82 -71 80 -84 105 -98 135 -79 7 4 16 18 20 30
8 22 9 22 57 -13 43 -30 54 -34 88 -29 32 6 43 3 64 -17 29 -27 47 -58 67
-116 19 -54 87 -154 100 -146 6 3 7 1 3 -5 -4 -7 29 -58 81 -124 48 -61 91
-116 95 -122 5 -7 10 -7 17 -1 6 6 -20 47 -73 112 -45 56 -95 125 -110 153
-23 43 -86 211 -86 231 0 3 26 -2 58 -13 65 -22 140 -30 148 -16 13 20 -62 68
-150 96 l-90 28 -14 52 c-8 28 -28 68 -46 88 -28 32 -44 39 -169 74 l-139 39
-106 -19 c-66 -12 -111 -25 -118 -35 -6 -8 -21 -15 -32 -15 -11 0 -74 -13
-139 -29 -187 -46 -273 -56 -468 -55 -211 0 -331 21 -504 84 -200 74 -290 86
-367 51z m1875 -36 c152 -42 181 -66 207 -172 6 -23 5 -23 -22 -11 -21 10 -28
10 -31 1 -3 -8 -10 -9 -21 -4 -9 5 -36 15 -60 22 -27 8 -51 24 -68 46 -35 46
-72 69 -87 54 -8 -8 -6 -11 10 -11 12 0 24 -4 28 -9 5 -10 -44 1 -65 14 -5 3
-13 24 -16 47 -7 41 -7 41 -24 18 -14 -19 -29 -23 -93 -27 -74 -4 -124 8 -112
27 3 4 38 14 78 20 39 6 79 13 87 15 40 8 74 2 189 -30z m-321 -56 c-29 -7
-48 -1 -48 16 0 9 8 10 35 1 32 -10 33 -12 13 -17z m179 -1 c-16 -10 -77 -9
-102 2 -20 9 -20 9 0 10 11 1 30 1 42 0 12 -1 30 3 40 9 21 11 40 -9 20 -21z
m11 -91 l90 -32 -14 -28 c-24 -45 -51 -35 -134 50 -41 43 -65 69 -54 60 12
-10 62 -32 112 -50z m106 44 c-2 -2 3 -13 13 -23 16 -17 14 -17 -38 0 -86 30
-87 31 -27 29 31 -1 54 -4 52 -6z m86 -111 c56 -22 63 -24 56 -12 -2 4 -1 13
3 20 11 17 108 -16 114 -40 6 -22 1 -22 -54 -3 -32 12 -50 13 -72 5 -31 -10
-71 4 -96 34 -17 21 -12 20 49 -4z m204 -21 c-5 -9 1 -10 22 -5 18 4 24 3 16
-2 -17 -11 70 -37 93 -28 9 3 14 2 10 -3 -8 -14 6 -42 19 -34 8 4 8 3 1 -5 -8
-9 -32 -5 -93 15 -79 26 -106 48 -80 65 18 11 20 10 12 -3z m7 -138 c17 -53
38 -108 46 -123 7 -16 12 -28 9 -28 -10 0 -68 102 -82 146 -9 27 -29 65 -45
85 l-28 37 34 -11 c33 -10 36 -15 66 -106z"/>
</g>
</svg>
